<svg viewBox="0 0 41 41" fill="none" xmlns="http://www.w3.org/2000/svg">
<path d="M32.0839 33.7385L35.7825 35.5488C36.8693 36.0807 38.1855 35.6081 38.606 34.4735C39.6865 31.5588 40.5313 28.1066 40.8222 24.555C41.1627 20.3992 40.7419 16.15 39.0944 12.4731L39.0921 12.4741C39.0189 12.3157 38.9445 12.1577 38.8688 12.0002C38.302 10.9111 37.2403 9.57534 35.6767 8.69152C33.9143 7.69531 31.4661 7.24445 28.2533 8.44979C27.5717 8.7055 26.8778 9.03594 26.182 9.43012C27.056 10.9195 27.6822 12.9281 27.7319 15.5767C27.7768 17.9704 27.3891 20.2373 26.7951 22.2569L32.4241 24.3502C33.7553 24.8452 34.6292 26.1624 34.3635 27.5576C34.0439 29.2348 33.5083 30.8674 32.7731 32.4188C32.5646 32.8587 32.3354 33.3002 32.0839 33.7385Z" fill="#373A4A"/>
<path d="M12.9948 32.1513C13.4756 32.0063 13.9833 31.7966 14.5163 31.505C16.7731 30.27 18.4799 28.2534 19.6933 26.2751C20.4798 24.9926 21.0714 23.7061 21.4781 22.6194C21.6615 22.1293 22.2033 21.8629 22.6937 22.0452L31.8064 25.434C32.7242 25.7753 33.3029 26.6988 33.0963 27.656C32.824 28.9174 32.3655 30.4007 31.6584 31.8926C30.4994 34.3382 28.6933 36.7644 25.9908 38.298C23.7577 39.5651 21.4739 40.2188 19.3389 40.317C17.0128 39.9228 15.4867 38.9116 14.5145 37.5611C13.4852 36.1312 13.0275 34.2522 12.9948 32.1513Z" fill="#373A4A"/>
<path d="M18.6421 0.311564C24.3895 -0.362069 28.66 0.911496 31.9015 3.20394C33.6239 4.422 35.0703 5.93815 36.297 7.62873L36.2838 7.62125C34.1915 6.43857 31.361 5.96985 27.8197 7.29845C23.0656 9.08205 17.9405 14.1081 15.212 19.2336C13.4422 22.5581 11.6969 27.6559 11.7629 32.1552C11.7959 34.4104 12.2851 36.5721 13.5144 38.2797C13.9424 38.8742 14.4542 39.4055 15.0558 39.8625C10.6779 38.7717 5.1693 35.7345 2.20061 28.7337C-0.390088 22.6244 0.841723 15.8616 4.19831 10.4261C7.56002 4.98228 12.9888 0.974174 18.6421 0.311564Z" fill="#373A4A"/>
</svg>