<svg width="141" height="41" viewBox="0 0 141 41" fill="none" xmlns="http://www.w3.org/2000/svg">
<path d="M32.0839 33.7385L35.7825 35.5488C36.8693 36.0807 38.1855 35.6081 38.606 34.4735C39.6865 31.5588 40.5313 28.1066 40.8222 24.555C41.1627 20.3992 40.7419 16.15 39.0944 12.4731L39.0921 12.4741C39.0189 12.3157 38.9445 12.1577 38.8688 12.0002C38.302 10.9111 37.2403 9.57534 35.6767 8.69152C33.9143 7.69531 31.4661 7.24445 28.2533 8.44979C27.5717 8.7055 26.8778 9.03594 26.182 9.43012C27.056 10.9195 27.6822 12.9281 27.7319 15.5767C27.7768 17.9704 27.3891 20.2373 26.7951 22.2569L32.4241 24.3502C33.7553 24.8452 34.6292 26.1624 34.3635 27.5576C34.0439 29.2348 33.5083 30.8674 32.7731 32.4188C32.5646 32.8587 32.3354 33.3002 32.0839 33.7385Z" fill="#373A4A"/>
<path d="M12.9948 32.1513C13.4756 32.0063 13.9833 31.7966 14.5163 31.505C16.7731 30.27 18.4799 28.2534 19.6933 26.2751C20.4798 24.9926 21.0714 23.7061 21.4781 22.6194C21.6615 22.1293 22.2033 21.8629 22.6937 22.0452L31.8064 25.434C32.7242 25.7753 33.3029 26.6988 33.0963 27.656C32.824 28.9174 32.3655 30.4007 31.6584 31.8926C30.4994 34.3382 28.6933 36.7644 25.9908 38.298C23.7577 39.5651 21.4739 40.2188 19.3389 40.317C17.0128 39.9228 15.4867 38.9116 14.5145 37.5611C13.4852 36.1312 13.0275 34.2522 12.9948 32.1513Z" fill="#373A4A"/>
<path d="M18.6421 0.311564C24.3895 -0.362069 28.66 0.911496 31.9015 3.20394C33.6239 4.422 35.0703 5.93815 36.297 7.62873L36.2838 7.62125C34.1915 6.43857 31.361 5.96985 27.8197 7.29845C23.0656 9.08205 17.9405 14.1081 15.212 19.2336C13.4422 22.5581 11.6969 27.6559 11.7629 32.1552C11.7959 34.4104 12.2851 36.5721 13.5144 38.2797C13.9424 38.8742 14.4542 39.4055 15.0558 39.8625C10.6779 38.7717 5.1693 35.7345 2.20061 28.7337C-0.390088 22.6244 0.841723 15.8616 4.19831 10.4261C7.56002 4.98228 12.9888 0.974174 18.6421 0.311564Z" fill="#373A4A"/>
<path d="M67.8893 12.1877C67.948 11.9884 68.131 11.8515 68.3388 11.8515H71.5918C71.8506 11.8515 72.0604 12.0613 72.0604 12.3201V31.5247C72.0604 31.7835 71.8506 31.9933 71.5918 31.9933H68.1619C67.9494 31.9933 67.7636 31.8504 67.709 31.6451L67.3159 30.1656C65.5974 31.6949 63.3559 32.5901 60.7782 32.5901C54.7262 32.5901 50.2058 28.0023 50.2058 21.9224C50.2058 15.8426 54.7262 11.292 60.7782 11.292C63.3933 11.292 65.6721 12.2245 67.428 13.7538L67.8893 12.1877ZM61.2265 27.4428C64.402 27.4428 66.7182 25.0929 66.7182 21.9224C66.7182 18.752 64.402 16.4021 61.2265 16.4021C58.0511 16.4021 55.7348 18.752 55.7348 21.9224C55.7348 25.0556 58.0511 27.4428 61.2265 27.4428Z" fill="#373A4A"/>
<path d="M89.7101 12.1615C89.777 11.9755 89.9534 11.8515 90.1511 11.8515H94.7726C95.1036 11.8515 95.3302 12.1854 95.2081 12.493L87.5854 31.6976C87.5146 31.8761 87.342 31.9933 87.1499 31.9933H82.7396C82.5492 31.9933 82.3777 31.8781 82.3057 31.7018L74.4693 12.4971C74.3435 12.1889 74.5703 11.8515 74.9032 11.8515H79.7061C79.9029 11.8515 80.0787 11.9745 80.1462 12.1594L84.9651 25.354L89.7101 12.1615Z" fill="#373A4A"/>
<path d="M113.374 11.8515H116.978C117.237 11.8515 117.446 12.0613 117.446 12.3201V31.5247C117.446 31.7835 117.237 31.9933 116.978 31.9933H113.548C113.335 31.9933 113.15 31.8504 113.095 31.6451L112.702 30.1656C110.983 31.6949 108.742 32.5901 106.164 32.5901C100.112 32.5901 95.5917 28.0023 95.5917 21.9224C95.5917 15.8426 100.112 11.292 106.164 11.292C108.779 11.292 111.058 12.2245 112.814 13.7538L113.374 11.8515ZM106.612 27.4428C109.788 27.4428 112.104 25.0929 112.104 21.9224C112.104 18.752 109.788 16.4021 106.612 16.4021C103.437 16.4021 101.121 18.752 101.121 21.9224C101.121 25.0556 103.437 27.4428 106.612 27.4428Z" fill="#373A4A"/>
<path d="M124.652 9.8784C123.198 9.8784 122.02 8.70025 122.02 7.24693C122.02 5.79361 123.198 4.61546 124.652 4.61546H124.806C126.259 4.61546 127.437 5.79361 127.437 7.24693C127.437 8.70025 126.259 9.8784 124.806 9.8784H124.652ZM122.451 31.9933C122.193 31.9933 121.983 31.7835 121.983 31.5247V12.3201C121.983 12.0613 122.193 11.8515 122.451 11.8515H126.968C127.227 11.8515 127.437 12.0613 127.437 12.3201V31.5247C127.437 31.7835 127.227 31.9933 126.968 31.9933H122.451Z" fill="#373A4A"/>
<path d="M137.379 25.3789C137.379 25.8536 137.477 26.1886 137.673 26.3841C137.897 26.5516 138.246 26.6354 138.722 26.6354C138.959 26.6354 139.18 26.6354 139.502 26.6354C139.824 26.6354 140.022 26.9239 140.022 27.1881V31.3687L140.022 31.3878C140.023 31.6924 139.789 31.9629 139.417 31.9629C138.711 31.9629 138.125 31.9933 137.379 31.9933L136.372 31.9932C134.945 31.9932 133.841 31.6163 133.058 30.8624C132.303 30.1085 131.925 28.7683 131.925 26.8417V5.08403C131.925 4.82525 132.135 4.61546 132.394 4.61546L136.911 4.61542C137.17 4.61542 137.379 4.82521 137.379 5.08399V25.3789Z" fill="#373A4A"/>
</svg>
