<svg width="100" height="100" viewBox="0 0 100 100" fill="none" xmlns="http://www.w3.org/2000/svg">
<path fill-rule="evenodd" clip-rule="evenodd" d="M0.0283203 88.8712L11.1878 99.9801L22.3473 88.8712L11.1878 77.7622L0.0283203 88.8712Z" fill="#FFFFFF"/>
<path fill-rule="evenodd" clip-rule="evenodd" d="M100.463 11.109L89.303 0L78.1436 11.109L89.303 22.218L100.463 11.109Z" fill="#FFFFFF"/>
<path fill-rule="evenodd" clip-rule="evenodd" d="M61.4045 61.0988L50.2449 72.2079L39.0855 61.0988L27.926 49.9898L39.0855 38.8809L50.2449 27.7719L61.4045 38.8809L72.5638 49.9898L61.4045 61.0988ZM94.8828 49.9896L83.7232 38.8807L72.5638 27.7716L61.4042 16.6626L50.2449 5.55365L39.0853 16.6626L27.9259 27.7716L16.7664 38.8807L5.60693 49.9896L16.7664 61.0985L27.9259 72.2077L39.0853 83.3166L50.2449 94.4255L61.4042 83.3166L72.5638 72.2077L83.7232 61.0985L94.8828 49.9896Z" fill="#FFFFFF"/>
<path fill-rule="evenodd" clip-rule="evenodd" d="M78.1313 88.891L89.2908 100L100.45 88.891L89.2908 77.782L78.1313 88.891Z" fill="#FFFFFF"/>
<path fill-rule="evenodd" clip-rule="evenodd" d="M22.319 11.116L11.1595 0.00701904L0 11.116L11.1595 22.225L22.319 11.116Z" fill="#FFFFFF"/>
</svg>