<?xml version="1.0" encoding="utf-8"?>
<svg viewBox="60 230 130 140" xmlns="http://www.w3.org/2000/svg">
<style type="text/css">
	.st0{fill:white;}
</style>
<g>
	<path class="st0" d="M86.4,275.9c0,0.2,0.2,0.4,0.4,0.6c0.7,1.1,1.5,2.3,2.3,3.4l1.7,2.6c5.8-1.5,10.9-4.9,14.4-9.6
		c2.6-4,4.1-8.5,4.6-13.2c0.3-1.5,0.5-2.9,0.8-4.2c2.8-12.8,12.4-14,14.5-14.2c7.3,0,11.6,7.4,12.6,9.4c0.6-0.4,1.3-0.9,2-1.3
		c1.4-0.9,2.9-1.7,4.5-2.4c-1.7-3.5-7.9-13.1-19-13.1h-0.4c-7.9,0.4-18.3,5.9-21.5,20c-0.4,1.6-0.7,3.2-0.9,4.7
		c-0.3,3.6-1.5,7-3.4,10.1C96,272.6,91.4,275.2,86.4,275.9z"/>
	<path class="st0" d="M80.8,286c2.3,2.8,3.9,6,4.8,9.5c0.6,5.1-0.8,10.1-3.9,14.2l0.7,0.2c1.3,0.3,2.6,0.6,4,0.8l3,0.5
		c3.1-5.1,4.2-11.1,3.4-17c-1-4.6-3.1-8.8-6-12.5c-0.9-1.2-1.7-2.4-2.4-3.6c-7-11-1.1-18.7,0.3-20.3c5.2-5.2,13.5-3,15.5-2.3
		c0.2-0.8,0.3-1.5,0.5-2.3c0.4-1.7,0.9-3.3,1.5-4.9c-3.8-1.2-15-3.7-22.9,4.3c-5.3,6-8.7,17.2-0.9,29.3
		C79,283.4,79.9,284.7,80.8,286L80.8,286z"/>
	<path class="st0" d="M84.9,320.7c3.6,0.4,7,1.5,10.1,3.5c4,3.2,6.6,7.8,7.3,12.9l0.6-0.4c1.1-0.7,2.3-1.5,3.4-2.3
		c1.2-0.8,1.6-1.2,2.6-1.7c-1.5-5.8-4.9-10.9-9.6-14.4c-4-2.6-8.5-4.3-13.2-4.9c-1.5-0.3-2.9-0.5-4.2-0.8
		c-12.8-2.8-14-12.4-14.2-14.5c0-7.3,7.4-11.6,9.4-12.6c-0.4-0.6-0.9-1.3-1.3-2c-0.9-1.4-1.7-2.9-2.4-4.5
		c-3.5,1.8-13.1,7.9-13.1,19.2v0.2c0.4,7.9,5.9,18.3,20,21.5C81.7,320.2,83.4,320.5,84.9,320.7L84.9,320.7z"/>
	<path class="st0" d="M112.3,342.5c2.8-2.3,6-3.9,9.5-4.8c5.1-0.6,10.1,0.9,14.2,3.9c0.1-0.2,0.1-0.5,0.2-0.7
		c0.3-1.3,0.6-2.6,0.8-4.1c0.2-0.9,0.3-1.9,0.5-2.9c-5.1-3.1-11.1-4.3-17-3.4c-4.6,1-8.8,3.1-12.5,6c-1.2,0.9-2.4,1.7-3.6,2.4
		c-11,7-18.7,1.1-20.3-0.3c-5.2-5.2-3-13.5-2.3-15.5l-2.3-0.5c-1.7-0.4-3.3-0.9-4.9-1.5c-1.2,3.8-3.7,15,4.3,22.9
		c4.1,3.6,9.4,5.6,14.9,5.6c5.1-0.1,10.1-1.6,14.4-4.5C109.7,344.2,111,343.3,112.3,342.5L112.3,342.5z"/>
	<path class="st0" d="M163.2,321l-0.4-0.6c-0.7-1.1-1.5-2.3-2.3-3.4c-0.9-1.2-1.1-1.6-1.7-2.6c-5.8,1.5-10.9,4.9-14.4,9.7
		c-2.5,3.9-4.1,8.4-4.6,13c-0.3,1.5-0.5,2.9-0.8,4.2c-2.8,12.8-12.4,14.1-14.5,14.2c-7.3,0-11.6-7.5-12.6-9.4l-2,1.3
		c-1.4,0.9-2.9,1.7-4.5,2.4c1.8,3.4,7.9,13.2,19,13.2h0.4c7.9-0.4,18.3-5.9,21.5-19.9c0.4-1.6,0.7-3.2,0.9-4.7
		c0.4-3.5,1.5-7,3.4-10C153.6,324.4,158.2,321.8,163.2,321L163.2,321z"/>
	<path class="st0" d="M168.7,310.9c-2.3-2.8-4-6-4.8-9.5c-0.5-5.1,0.9-10.1,3.9-14.2l-0.7-0.2c-1.3-0.3-2.6-0.6-4-0.8l-3-0.6
		c-3.1,5.1-4.3,11.1-3.4,17c1,4.6,3.1,8.8,6,12.5c0.9,1.2,1.7,2.4,2.4,3.6c7,11,1.1,18.7-0.3,20.3c-5.2,5.2-13.5,2.9-15.5,2.3
		c-0.2,0.8-0.3,1.5-0.5,2.3c-0.4,1.7-0.9,3.3-1.5,4.9c2.8,0.9,5.7,1.3,8.6,1.3c2.6,0.1,5.3-0.4,7.7-1.4c2.5-1,4.7-2.4,6.6-4.3
		c5.3-5.9,8.8-17.1,1.1-29.3C170.5,313.5,169.6,312.2,168.7,310.9L168.7,310.9z"/>
	<path class="st0" d="M169.4,277.1c-1.6-0.4-3.2-0.7-4.7-0.9c-3.6-0.3-7-1.5-10.1-3.4c-4-3.2-6.6-7.8-7.3-12.8l-0.6,0.4
		c-1.1,0.7-2.3,1.5-3.4,2.3c-0.8,0.6-1.6,1.2-2.6,1.7c1.5,5.8,4.9,10.9,9.7,14.4c3.9,2.5,8.4,4.1,13.1,4.6
		c1.5,0.3,2.9,0.5,4.2,0.8c12.8,2.8,14.1,12.4,14.2,14.5c0,7.3-7.4,11.6-9.4,12.6c0.4,0.6,0.9,1.3,1.3,2c1,1.4,1.8,2.9,2.6,4.5
		c3.5-1.8,13.2-8,13.1-19.2v-0.2C188.9,290.7,183.5,280.3,169.4,277.1z"/>
	<path class="st0" d="M137.2,254.5c-2.8,2.3-6,3.9-9.5,4.8c-5.1,0.6-10.1-0.8-14.2-3.9c0,0.2,0,0.5-0.2,0.7
		c-0.3,1.3-0.6,2.6-0.8,4.1c-0.2,1-0.3,2-0.6,3c5.1,3.1,11.1,4.2,17,3.4c4.6-1,8.9-3.1,12.5-6c1.2-0.9,2.4-1.7,3.6-2.4
		c11-7,18.7-1.1,20.3,0.3c5.2,5.2,2.9,13.5,2.3,15.5c0.8,0.2,1.5,0.3,2.3,0.5c1.7,0.4,3.3,0.9,4.9,1.5c1.2-3.8,3.7-15-4.3-22.9
		c-6-5.3-17.2-8.7-29.4-0.9C139.8,252.7,138.5,253.6,137.2,254.5L137.2,254.5z"/>
</g>
</svg>