<?xml version="1.0" encoding="utf-8"?>
<!-- Generator: Adobe Illustrator 26.0.3, SVG Export Plug-In . SVG Version: 6.00 Build 0)  -->
<svg version="1.0" id="katman_1" xmlns="http://www.w3.org/2000/svg" xmlns:xlink="http://www.w3.org/1999/xlink" x="0px" y="0px"
	 viewBox="0 0 800 600" style="enable-background:new 0 0 800 600;" xml:space="preserve">
<style type="text/css">
	.st0{fill:#1D1D1B;}
	.st1{fill-rule:evenodd;clip-rule:evenodd;fill:#1D1D1B;}
</style>
<g id="b">
	<g id="c">
		<g>
			<path class="st0" d="M86.4,275.9c0,0.2,0.2,0.4,0.4,0.6c0.7,1.1,1.5,2.3,2.3,3.4l1.7,2.6c5.8-1.5,10.9-4.9,14.4-9.6
				c2.6-4,4.1-8.5,4.6-13.2c0.3-1.5,0.5-2.9,0.8-4.2c2.8-12.8,12.4-14,14.5-14.2c7.3,0,11.6,7.4,12.6,9.4c0.6-0.4,1.3-0.9,2-1.3
				c1.4-0.9,2.9-1.7,4.5-2.4c-1.7-3.5-7.9-13.1-19-13.1h-0.4c-7.9,0.4-18.3,5.9-21.5,20c-0.4,1.6-0.7,3.2-0.9,4.7
				c-0.3,3.6-1.5,7-3.4,10.1C96,272.6,91.4,275.2,86.4,275.9z"/>
			<path class="st0" d="M80.8,286c2.3,2.8,3.9,6,4.8,9.5c0.6,5.1-0.8,10.1-3.9,14.2l0.7,0.2c1.3,0.3,2.6,0.6,4,0.8l3,0.5
				c3.1-5.1,4.2-11.1,3.4-17c-1-4.6-3.1-8.8-6-12.5c-0.9-1.2-1.7-2.4-2.4-3.6c-7-11-1.1-18.7,0.3-20.3c5.2-5.2,13.5-3,15.5-2.3
				c0.2-0.8,0.3-1.5,0.5-2.3c0.4-1.7,0.9-3.3,1.5-4.9c-3.8-1.2-15-3.7-22.9,4.3c-5.3,6-8.7,17.2-0.9,29.3
				C79,283.4,79.9,284.7,80.8,286L80.8,286z"/>
			<path class="st0" d="M84.9,320.7c3.6,0.4,7,1.5,10.1,3.5c4,3.2,6.6,7.8,7.3,12.9l0.6-0.4c1.1-0.7,2.3-1.5,3.4-2.3
				c1.2-0.8,1.6-1.2,2.6-1.7c-1.5-5.8-4.9-10.9-9.6-14.4c-4-2.6-8.5-4.3-13.2-4.9c-1.5-0.3-2.9-0.5-4.2-0.8
				c-12.8-2.8-14-12.4-14.2-14.5c0-7.3,7.4-11.6,9.4-12.6c-0.4-0.6-0.9-1.3-1.3-2c-0.9-1.4-1.7-2.9-2.4-4.5
				c-3.5,1.8-13.1,7.9-13.1,19.2v0.2c0.4,7.9,5.9,18.3,20,21.5C81.7,320.2,83.4,320.5,84.9,320.7L84.9,320.7z"/>
			<path class="st0" d="M112.3,342.5c2.8-2.3,6-3.9,9.5-4.8c5.1-0.6,10.1,0.9,14.2,3.9c0.1-0.2,0.1-0.5,0.2-0.7
				c0.3-1.3,0.6-2.6,0.8-4.1c0.2-0.9,0.3-1.9,0.5-2.9c-5.1-3.1-11.1-4.3-17-3.4c-4.6,1-8.8,3.1-12.5,6c-1.2,0.9-2.4,1.7-3.6,2.4
				c-11,7-18.7,1.1-20.3-0.3c-5.2-5.2-3-13.5-2.3-15.5l-2.3-0.5c-1.7-0.4-3.3-0.9-4.9-1.5c-1.2,3.8-3.7,15,4.3,22.9
				c4.1,3.6,9.4,5.6,14.9,5.6c5.1-0.1,10.1-1.6,14.4-4.5C109.7,344.2,111,343.3,112.3,342.5L112.3,342.5z"/>
			<path class="st0" d="M163.2,321l-0.4-0.6c-0.7-1.1-1.5-2.3-2.3-3.4c-0.9-1.2-1.1-1.6-1.7-2.6c-5.8,1.5-10.9,4.9-14.4,9.7
				c-2.5,3.9-4.1,8.4-4.6,13c-0.3,1.5-0.5,2.9-0.8,4.2c-2.8,12.8-12.4,14.1-14.5,14.2c-7.3,0-11.6-7.5-12.6-9.4l-2,1.3
				c-1.4,0.9-2.9,1.7-4.5,2.4c1.8,3.4,7.9,13.2,19,13.2h0.4c7.9-0.4,18.3-5.9,21.5-19.9c0.4-1.6,0.7-3.2,0.9-4.7
				c0.4-3.5,1.5-7,3.4-10C153.6,324.4,158.2,321.8,163.2,321L163.2,321z"/>
			<path class="st0" d="M168.7,310.9c-2.3-2.8-4-6-4.8-9.5c-0.5-5.1,0.9-10.1,3.9-14.2l-0.7-0.2c-1.3-0.3-2.6-0.6-4-0.8l-3-0.6
				c-3.1,5.1-4.3,11.1-3.4,17c1,4.6,3.1,8.8,6,12.5c0.9,1.2,1.7,2.4,2.4,3.6c7,11,1.1,18.7-0.3,20.3c-5.2,5.2-13.5,2.9-15.5,2.3
				c-0.2,0.8-0.3,1.5-0.5,2.3c-0.4,1.7-0.9,3.3-1.5,4.9c2.8,0.9,5.7,1.3,8.6,1.3c2.6,0.1,5.3-0.4,7.7-1.4c2.5-1,4.7-2.4,6.6-4.3
				c5.3-5.9,8.8-17.1,1.1-29.3C170.5,313.5,169.6,312.2,168.7,310.9L168.7,310.9z"/>
			<path class="st0" d="M169.4,277.1c-1.6-0.4-3.2-0.7-4.7-0.9c-3.6-0.3-7-1.5-10.1-3.4c-4-3.2-6.6-7.8-7.3-12.8l-0.6,0.4
				c-1.1,0.7-2.3,1.5-3.4,2.3c-0.8,0.6-1.6,1.2-2.6,1.7c1.5,5.8,4.9,10.9,9.7,14.4c3.9,2.5,8.4,4.1,13.1,4.6
				c1.5,0.3,2.9,0.5,4.2,0.8c12.8,2.8,14.1,12.4,14.2,14.5c0,7.3-7.4,11.6-9.4,12.6c0.4,0.6,0.9,1.3,1.3,2c1,1.4,1.8,2.9,2.6,4.5
				c3.5-1.8,13.2-8,13.1-19.2v-0.2C188.9,290.7,183.5,280.3,169.4,277.1z"/>
			<path class="st0" d="M137.2,254.5c-2.8,2.3-6,3.9-9.5,4.8c-5.1,0.6-10.1-0.8-14.2-3.9c0,0.2,0,0.5-0.2,0.7
				c-0.3,1.3-0.6,2.6-0.8,4.1c-0.2,1-0.3,2-0.6,3c5.1,3.1,11.1,4.2,17,3.4c4.6-1,8.9-3.1,12.5-6c1.2-0.9,2.4-1.7,3.6-2.4
				c11-7,18.7-1.1,20.3,0.3c5.2,5.2,2.9,13.5,2.3,15.5c0.8,0.2,1.5,0.3,2.3,0.5c1.7,0.4,3.3,0.9,4.9,1.5c1.2-3.8,3.7-15-4.3-22.9
				c-6-5.3-17.2-8.7-29.4-0.9C139.8,252.7,138.5,253.6,137.2,254.5L137.2,254.5z"/>
		</g>
	</g>
</g>
<path class="st1" d="M583.5,312l0.1,0.1v-15.6h-7v11.8v0c-2.1,1.6-4.8,2.5-7.7,2.5c-7,0-12.8-5.6-12.8-12.5
	c0-6.9,5.7-12.5,12.8-12.5c3.4,0,6.4,1.3,8.7,3.3l5.4-5.3c-3.7-3.4-8.6-5.5-14.1-5.5c-11.3,0-20.4,8.9-20.4,19.9
	c0,11,9.1,19.9,20.4,19.9c5.8,0,11-2.4,14.7-6.1L583.5,312z"/>
<path class="st1" d="M710.3,278.5v32.4v7.5H736v-7.5h-18.4v-32.4H710.3z"/>
<path class="st1" d="M682.7,285.8l15.8,32.5h-7.6l-12.1-24.9l-12.6,24.9h-7.6l16.4-32.5l3.8-7.3L682.7,285.8z"/>
<rect x="529.8" y="278.5" class="st0" width="7" height="39.8"/>
<rect x="595.4" y="278.5" class="st0" width="7" height="39.8"/>
<path class="st1" d="M636.7,286h12.6v-7.5h-12.6h-7.6h-12.6v7.5h12.6v32.4h7.6V286z"/>
<path class="st1" d="M496.6,278.5h-11.3v7.5h11.9c6.9,0,12.5,5.6,12.5,12.5c0,6.9-5.6,12.5-12.5,12.5h-11.9v7.5h11.3
	c10.6,0,19.2-8.6,19.2-19.2v-1.5C515.7,287.1,507.1,278.5,496.6,278.5z"/>
<path class="st1" d="M354,278.5h16.6c6.4,0,11.6,5.2,11.6,11.6s-5.2,11.6-11.6,11.6H361v16.7h-7v-16.7h0v-7.7h17.2
	c2.1,0,3.9-1.7,3.9-3.9c0-2.1-1.7-3.9-3.9-3.9H354V278.5z"/>
<path class="st1" d="M396.2,318.3v-39.8h7.3v39.8H396.2z M419.4,295.2v-16.7h7.3v39.8h-7.3v-15.4h-15.8v-7.7H419.4z"/>
<path class="st1" d="M314.2,278.5v32.4v7.5h25.8v-7.5h-18.4v-32.4H314.2z"/>
<rect x="440.7" y="278.5" class="st0" width="7" height="39.8"/>
<path class="st1" d="M241.1,278.5h-11.3v7.5h11.9c6.9,0,12.5,5.6,12.5,12.5c0,6.9-5.6,12.5-12.5,12.5h-11.9v7.5h11.3
	c10.6,0,19.2-8.6,19.2-19.2v-1.5C260.3,287.1,251.7,278.5,241.1,278.5z"/>
<path class="st1" d="M272,278.5h25.8v7.5H272V278.5z M272,294.7h23.3v7.5H272V294.7z M297.8,310.9H272v7.5h25.8V310.9z"/>
</svg>
