<svg viewBox="0 0 48 48" fill="none" xmlns="http://www.w3.org/2000/svg">
<path d="M23.3229 0V18.3036H0C2.55799 7.79937 12.034 0 23.3265 0H23.3229Z" fill="#8BADE4"/>
<path d="M29.4599 9.15363C29.4599 10.3216 28.5105 11.271 27.339 11.271C27.0596 11.271 26.7909 11.2172 26.5472 11.1169C25.7698 10.8052 25.2217 10.0421 25.2217 9.15363C25.2217 7.98211 26.1711 7.03271 27.339 7.03271C27.622 7.03271 27.8907 7.08645 28.1343 7.18677C28.9118 7.50204 29.4599 8.26155 29.4599 9.15363Z" fill="white"/>
<path d="M47.2766 23.9893C47.2766 37.2521 36.5252 48 23.2659 48C19.3465 48 15.6456 47.0614 12.3783 45.3954C8.92105 43.6328 5.95105 41.0605 3.71191 37.9257L23.2659 18.3717C27.9125 13.725 32.5556 9.08197 37.2023 4.4353C41.8131 7.72773 45.2095 12.6109 46.5923 18.2821C47.0402 20.1129 47.2766 22.0224 47.2766 23.9893Z" fill="white"/>
</svg>