<svg viewBox="0 0 146 48" fill="none" xmlns="http://www.w3.org/2000/svg">
<path d="M134.614 16.9351C136.341 16.9351 137.871 17.2145 139.2 17.7734C140.554 18.3036 141.697 19.0775 142.629 20.0842C143.585 21.0694 144.316 22.2374 144.821 23.5916C145.326 24.9208 145.577 26.3968 145.577 28.0161C145.577 30.0367 145.151 31.8316 144.302 33.3972C143.478 34.9378 142.335 36.1487 140.873 37.0264C139.411 37.9042 137.71 38.3413 135.771 38.3413C134.947 38.3413 134.163 38.2338 133.418 38.0224C132.701 37.811 132.035 37.5029 131.426 37.1053C130.842 36.7076 130.347 36.2132 129.95 35.6292H129.831V46.5132H123.651V28.0126C123.651 25.7519 124.103 23.7994 125.006 22.1514C125.908 20.5034 127.184 19.228 128.832 18.3251C130.48 17.3937 132.407 16.9279 134.614 16.9279V16.9351ZM134.614 22.2804C133.658 22.2804 132.819 22.5204 132.103 22.9969C131.411 23.4483 130.881 24.086 130.509 24.91C130.136 25.7089 129.95 26.6117 129.95 27.622C129.95 28.6323 130.136 29.5352 130.509 30.3341C130.881 31.133 131.411 31.7707 132.103 32.2472C132.819 32.6986 133.658 32.9243 134.614 32.9243C135.571 32.9243 136.395 32.6986 137.086 32.2472C137.778 31.7671 138.308 31.1294 138.68 30.3341C139.078 29.5352 139.279 28.6323 139.279 27.622C139.279 26.6117 139.078 25.7089 138.68 24.91C138.308 24.086 137.778 23.4483 137.086 22.9969C136.395 22.5168 135.571 22.2804 134.614 22.2804Z" fill="white"/>
<path d="M111.105 16.9351C112.832 16.9351 114.361 17.2145 115.691 17.7734C117.045 18.3036 118.188 19.0775 119.119 20.0842C120.076 21.0694 120.807 22.2374 121.312 23.5916C121.817 24.9208 122.068 26.3968 122.068 28.0161C122.068 30.0367 121.641 31.8316 120.792 33.3972C119.968 34.9378 118.825 36.1487 117.364 37.0264C115.902 37.9042 114.2 38.3413 112.258 38.3413C111.434 38.3413 110.65 38.2338 109.905 38.0224C109.188 37.811 108.522 37.5029 107.909 37.1053C107.325 36.7076 106.834 36.2132 106.433 35.6292H106.315V46.5132H100.135V28.0126C100.135 25.7519 100.586 23.7994 101.489 22.1514C102.392 20.5034 103.667 19.228 105.315 18.3251C106.963 17.3937 108.891 16.9279 111.098 16.9279L111.105 16.9351ZM111.105 22.2804C110.148 22.2804 109.31 22.5204 108.593 22.9969C107.902 23.4483 107.372 24.086 106.999 24.91C106.626 25.7089 106.44 26.6117 106.44 27.622C106.44 28.6323 106.626 29.5352 106.999 30.3341C107.372 31.133 107.902 31.7707 108.593 32.2472C109.31 32.6986 110.148 32.9243 111.105 32.9243C112.061 32.9243 112.885 32.6986 113.577 32.2472C114.268 31.7671 114.798 31.1294 115.171 30.3341C115.569 29.5352 115.769 28.6323 115.769 27.622C115.769 26.6117 115.569 25.7089 115.171 24.91C114.798 24.086 114.268 23.4483 113.577 22.9969C112.885 22.5168 112.061 22.2804 111.105 22.2804Z" fill="white"/>
<path d="M87.5134 38.3484C85.4139 38.3484 83.5259 37.8827 81.8528 36.9512C80.1797 36.0197 78.8506 34.7443 77.8653 33.1249C76.9088 31.502 76.4287 29.682 76.4287 27.6614C76.4287 25.6408 76.9088 23.7922 77.8653 22.1979C78.8506 20.575 80.1761 19.2996 81.8528 18.3717C83.5259 17.4151 85.4139 16.9351 87.5134 16.9351C89.6128 16.9351 91.4865 17.4151 93.1345 18.3717C94.8076 19.3032 96.126 20.5786 97.0825 22.1979C98.0678 23.7922 98.5586 25.6122 98.5586 27.6614C98.5586 29.7107 98.0678 31.502 97.0825 33.1249C96.126 34.7479 94.8112 36.0233 93.1345 36.9512C91.4614 37.8827 89.5877 38.3484 87.5134 38.3484ZM87.5134 32.9637C88.4986 32.9637 89.3477 32.7237 90.0642 32.2472C90.7807 31.7671 91.3396 31.1294 91.7373 30.3341C92.1349 29.5351 92.3356 28.6323 92.3356 27.622C92.3356 26.6117 92.1349 25.7483 91.7373 24.9494C91.3396 24.1505 90.7807 23.5128 90.0642 23.0363C89.3477 22.5562 88.495 22.3197 87.5134 22.3197C86.5317 22.3197 85.6647 22.5598 84.9231 23.0363C84.2066 23.5163 83.6477 24.154 83.25 24.9494C82.8524 25.7483 82.6517 26.6368 82.6517 27.622C82.6517 28.6072 82.8524 29.5351 83.25 30.3341C83.6477 31.133 84.2066 31.7707 84.9231 32.2472C85.6683 32.7273 86.5317 32.9637 87.5134 32.9637Z" fill="white"/>
<path d="M68.8368 8.76312V19.6471H68.7186C68.3209 19.0918 67.8157 18.6082 67.2031 18.2105C66.6156 17.7842 65.9564 17.4653 65.2112 17.2539C64.4946 17.039 63.7208 16.9351 62.8968 16.9351C60.9837 16.9351 59.2819 17.3722 57.7916 18.2499C56.3298 19.1277 55.1727 20.3386 54.3236 21.8791C53.4996 23.4232 53.084 25.2324 53.084 27.3032C53.084 28.9011 53.3384 30.3771 53.8399 31.7277C54.3487 33.0856 55.0652 34.2678 55.9931 35.2781C56.9246 36.2633 58.0674 37.0193 59.4252 37.5495C60.8081 38.0833 62.3487 38.3448 64.0468 38.3448C66.2824 38.3448 68.2098 37.8934 69.8292 36.9906C71.4772 36.0842 72.7526 34.7981 73.659 33.1214C74.5618 31.4483 75.0132 29.4922 75.0132 27.2602V8.76312H68.8332H68.8368ZM68.1633 30.4129C67.7907 31.2083 67.2461 31.8496 66.526 32.326C65.8345 32.7775 65.0105 33.0032 64.054 33.0032C63.0974 33.0032 62.3021 32.7775 61.5856 32.326C60.869 31.8496 60.3209 31.2083 59.9483 30.4129C59.5757 29.5889 59.393 28.6718 59.393 27.6615C59.393 26.6512 59.5757 25.7483 59.9483 24.953C60.3209 24.1577 60.8654 23.5307 61.5856 23.0793C62.3021 22.5992 63.1261 22.3628 64.054 22.3628C64.9819 22.3628 65.8345 22.5992 66.526 23.0793C67.2425 23.5307 67.7907 24.1577 68.1633 24.953C68.5358 25.7483 68.7186 26.6512 68.7186 27.6615C68.7186 28.6718 68.5358 29.5925 68.1633 30.4129Z" fill="white"/>
<path d="M23.3229 0V18.3036H0C2.55799 7.79937 12.034 0 23.3265 0H23.3229Z" fill="#8BADE4"/>
<path d="M29.4599 9.15363C29.4599 10.3216 28.5105 11.271 27.339 11.271C27.0596 11.271 26.7909 11.2172 26.5472 11.1169C25.7698 10.8052 25.2217 10.0421 25.2217 9.15363C25.2217 7.98211 26.1711 7.03271 27.339 7.03271C27.622 7.03271 27.8907 7.08645 28.1343 7.18677C28.9118 7.50204 29.4599 8.26155 29.4599 9.15363Z" fill="white"/>
<path d="M47.2766 23.9893C47.2766 37.2521 36.5252 48 23.2659 48C19.3465 48 15.6456 47.0614 12.3783 45.3954C8.92105 43.6328 5.95105 41.0605 3.71191 37.9257L23.2659 18.3717C27.9125 13.725 32.5556 9.08197 37.2023 4.4353C41.8131 7.72773 45.2095 12.6109 46.5923 18.2821C47.0402 20.1129 47.2766 22.0224 47.2766 23.9893Z" fill="white"/>
</svg>