<svg width="397" height="66" viewBox="0 0 397 66" fill="none" xmlns="http://www.w3.org/2000/svg">
<g clip-path="url(#clip0_580_904)">
<path d="M41.5694 2.2112C23.1164 9.25268 21.4265 27.3594 16.0866 35.8092C10.7468 44.2589 -1.55525 49.0203 0.134586 53.3793C1.82442 57.7384 14.1264 53.044 23.8599 55.8606C33.5934 58.6772 46.8417 70.8825 65.2947 63.841C69.7683 62.1284 73.8138 59.4725 77.1515 56.0568C80.4893 52.6411 83.0396 48.5471 84.6264 44.0577C84.7878 43.6931 84.7965 43.2799 84.6507 42.9089C84.505 42.5379 84.2166 42.2395 83.8491 42.0794C83.4816 41.9193 83.065 41.9107 82.6911 42.0553C82.3172 42.1999 82.0164 42.486 81.8551 42.8506C79.9487 46.6648 77.1258 49.955 73.6353 52.4314C70.1448 54.9077 66.0939 56.4941 61.8396 57.0507C57.5853 57.6073 53.2584 57.117 49.2401 55.623C45.2219 54.129 41.6359 51.6773 38.7981 48.4838C37.1561 46.6547 35.79 44.5991 34.7424 42.3812C34.4045 41.7776 34.1341 41.107 33.8637 40.5035C33.5934 39.8999 33.3906 39.1622 33.1878 38.4916C38.798 35.9433 45.1518 33.1937 52.4519 30.4442C59.752 27.6947 66.0382 25.4816 71.7837 23.738C75.7041 22.5309 79.2865 21.525 82.4634 20.7202L83.207 20.5861C83.44 20.522 83.6889 20.5489 83.9025 20.6611C84.1162 20.7733 84.2785 20.9625 84.356 21.1897C84.4765 21.4469 84.5672 21.7169 84.6264 21.9944C85.2873 23.7795 85.7849 25.6199 86.1135 27.4935C86.1444 27.673 86.2183 27.8425 86.3288 27.9878C86.4394 28.1332 86.5834 28.2502 86.7489 28.329C86.9143 28.4078 87.0964 28.4461 87.2798 28.4407C87.4633 28.4354 87.6428 28.3865 87.8033 28.2982C90.4395 26.8899 92.8728 25.4816 95.0358 24.2075C103.147 19.2449 107.608 15.02 106.662 12.6728C105.716 10.3257 99.6322 10.1245 90.3043 11.801C87.3302 12.3375 84.0181 13.0752 80.5032 14.0141L78.6782 14.4835C75.6365 15.2882 72.5272 16.16 69.2827 17.166C63.1993 19.0437 56.6427 21.3238 49.8834 23.8722C43.124 26.4205 37.649 28.7677 32.1063 31.2489C32.0792 26.9931 33.102 22.7953 35.0856 19.0216C37.0691 15.248 39.9531 12.0132 43.4861 9.59924C47.019 7.18532 51.0936 5.66563 55.3544 5.17273C59.6152 4.67982 63.9329 5.22867 67.9308 6.7714C68.222 6.87024 68.5354 6.88489 68.8346 6.81364C69.1339 6.7424 69.4065 6.58819 69.6207 6.36903C69.7833 6.20237 69.9041 6 69.9732 5.77835C70.0422 5.5567 70.0576 5.32202 70.0181 5.09336C69.9786 4.8647 69.8853 4.6485 69.7458 4.46233C69.6063 4.27615 69.4244 4.12525 69.2151 4.02187C65.0181 1.74038 60.3694 0.396244 55.5941 0.0834845C50.8188 -0.229275 46.0323 0.496895 41.5694 2.2112Z" fill="#FFF4E1"/>
</g>
<path d="M160.232 45.344C160.144 45.608 160.056 45.784 159.792 45.784H129.168C128.904 45.784 128.728 45.96 128.728 46.224C128.728 51.064 132.952 55.2 139.2 55.2C143.072 55.2 146.24 54.232 147.736 51.24C147.824 51.064 148 50.8 148.44 50.8H158.736C159 50.8 159.264 50.976 159.176 51.24C157.24 59.776 149.232 64.88 139.2 64.88C126.352 64.88 117.728 55.464 117.728 41.736C117.728 27.92 126.352 18.592 139.2 18.592C152.048 18.592 160.672 28.008 160.672 41.736C160.672 43.496 160.496 44.288 160.232 45.344ZM129.08 36.984H149.056C149.32 36.984 149.408 36.896 149.408 36.632C149.408 33.112 146.416 28.272 139.2 28.272C132.072 28.272 128.728 33.2 128.728 36.632C128.728 36.896 128.816 36.984 129.08 36.984ZM183.206 53.968L193.854 20.088C193.942 19.736 194.294 19.472 194.558 19.472H204.502C204.854 19.472 205.03 19.736 204.942 20.088L190.422 63.56C190.334 63.824 190.158 64 189.894 64H175.638C175.374 64 175.198 63.824 175.11 63.56L160.502 20.088C160.414 19.736 160.59 19.472 160.942 19.472H171.062C171.326 19.472 171.59 19.736 171.678 20.088L182.326 53.968C182.502 54.408 183.03 54.408 183.206 53.968ZM271.813 64H262.133C261.869 64 261.693 63.824 261.693 63.56V39.184C261.693 33.904 259.757 28.272 253.685 28.272C247.701 28.272 245.765 33.024 245.765 39.184V63.56C245.765 63.824 245.589 64 245.325 64H235.645C235.381 64 235.205 63.824 235.205 63.56V39.184C235.205 33.904 233.269 28.272 227.197 28.272C221.213 28.272 219.277 33.024 219.277 39.184V63.56C219.277 63.824 219.101 64 218.837 64H209.157C208.893 64 208.717 63.824 208.717 63.56V19.912C208.717 19.648 208.893 19.472 209.157 19.472H217.517C218.045 19.472 218.221 19.56 218.397 20L219.277 22.64C219.453 23.08 219.805 23.08 220.069 22.816C221.917 20.968 226.669 18.592 230.717 18.592C235.909 18.592 239.869 20.704 242.157 23.784C242.333 24.048 242.597 24.048 242.861 23.784C245.413 21.144 248.933 18.592 254.565 18.592C265.653 18.592 272.253 24.928 272.253 38.656V63.56C272.253 63.824 272.077 64 271.813 64ZM334.024 33.024C334.024 51.68 324.696 64.88 306.128 64.88C287.56 64.88 278.232 51.68 278.232 33.024C278.232 14.368 287.56 1.168 306.128 1.168C324.696 1.168 334.024 14.368 334.024 33.024ZM306.128 55.2C317.04 55.2 323.024 46.84 323.024 33.024C323.024 19.208 317.04 10.848 306.128 10.848C295.216 10.848 289.232 19.208 289.232 33.024C289.232 46.84 295.216 55.2 306.128 55.2ZM386.56 45.872C386.56 57.488 377.496 64.88 362.8 64.88C345.288 64.88 338.688 55.288 338.688 47.016C338.688 46.752 338.864 46.576 339.128 46.576H349.248C349.512 46.576 349.688 46.752 349.688 47.016C349.688 51.24 355.32 55.2 362.8 55.2C370.104 55.2 375.56 51.064 375.56 45.872C375.56 42 371.864 38.216 362.8 37.424C348.368 36.192 339.128 31.88 339.128 19.472C339.128 7.856 350.04 1.168 361.04 1.168C372.744 1.168 383.48 7.592 383.48 19.032C383.48 19.296 383.304 19.472 383.128 19.472H372.92C372.656 19.472 372.48 19.296 372.48 19.032C372.48 15.248 368.344 10.848 361.04 10.848C355.056 10.848 350.128 14.72 350.128 19.472C350.128 24.84 356.728 26.16 362.8 26.864C372.04 27.92 386.56 29.856 386.56 45.872Z" fill="#FFF4E1"/>
<defs>
<clipPath id="clip0_580_904">
<rect width="106.798" height="65.9888" fill="white"/>
</clipPath>
</defs>
</svg>
