<?xml version="1.0" encoding="UTF-8" standalone="no"?>
<svg viewBox="0 0 500 500" fill="none" xmlns="http://www.w3.org/2000/svg">
<path fill-rule="evenodd" clip-rule="evenodd" d="M0 178.571C0 266.017 62.8198 338.781 145.769 354.151C145.775 354.153 145.782 354.154 145.789 354.155C161.193 437.096 233.893 500 321.252 500C419.821 500 499.726 420.051 499.726 321.429C499.726 233.983 436.906 161.219 353.957 145.849C338.595 62.8543 265.871 0 178.474 0C79.9053 0 0 79.9492 0 178.571ZM356.407 164.575C356.765 169.193 356.947 173.861 356.947 178.571C356.947 277.194 277.042 357.143 178.474 357.143C173.766 357.143 169.101 356.96 164.485 356.602C180.516 428.445 244.617 482.143 321.252 482.143C409.964 482.143 481.879 410.189 481.879 321.429C481.879 244.751 428.21 180.615 356.407 164.575ZM321.252 160.714C326.981 160.714 332.641 161.014 338.215 161.6C337.567 155.421 336.569 149.347 335.241 143.398C330.625 143.04 325.96 142.857 321.252 142.857C222.684 142.857 142.779 222.806 142.779 321.429C142.779 326.139 142.961 330.806 143.319 335.425C149.265 336.753 155.336 337.752 161.511 338.4C160.926 332.823 160.626 327.161 160.626 321.429C160.626 232.669 232.541 160.714 321.252 160.714Z" fill="black"/>
</svg>