<?xml version="1.0" encoding="UTF-8" standalone="no"?>
<svg width="1823" height="500" viewBox="0 0 1823 500" fill="none" xmlns="http://www.w3.org/2000/svg">
<path fill-rule="evenodd" clip-rule="evenodd" d="M0 178.571C0 266.017 62.8198 338.781 145.769 354.151C145.775 354.153 145.782 354.154 145.789 354.155C161.193 437.096 233.893 500 321.252 500C419.821 500 499.726 420.051 499.726 321.429C499.726 233.983 436.906 161.219 353.957 145.849C338.595 62.8543 265.871 0 178.474 0C79.9053 0 0 79.9492 0 178.571ZM356.407 164.575C356.765 169.193 356.947 173.861 356.947 178.571C356.947 277.194 277.042 357.143 178.474 357.143C173.766 357.143 169.101 356.96 164.485 356.602C180.516 428.445 244.617 482.143 321.252 482.143C409.964 482.143 481.879 410.189 481.879 321.429C481.879 244.751 428.21 180.615 356.407 164.575ZM321.252 160.714C326.981 160.714 332.641 161.014 338.215 161.6C337.567 155.421 336.569 149.347 335.241 143.398C330.625 143.04 325.96 142.857 321.252 142.857C222.684 142.857 142.779 222.806 142.779 321.429C142.779 326.139 142.961 330.806 143.319 335.425C149.265 336.753 155.336 337.752 161.511 338.4C160.926 332.823 160.626 327.161 160.626 321.429C160.626 232.669 232.541 160.714 321.252 160.714Z" fill="black"/>
<path d="M682.272 114.613C674.885 114.613 669.848 112.775 667.162 109.097C664.811 105.086 663.636 100.072 663.636 94.0545C663.636 89.0401 664.811 84.6944 667.162 81.0172C669.848 77.0057 674.885 75 682.272 75C689.659 75 694.528 77.0057 696.878 81.0172C699.564 84.6944 700.907 89.0401 700.907 94.0545C700.907 100.072 699.564 105.086 696.878 109.097C694.528 112.775 689.659 114.613 682.272 114.613ZM666.154 340.759V136.676H698.389V340.759H666.154Z" fill="black"/>
<path d="M730.502 340.759V136.676H758.203L763.744 187.321H764.751C765.087 185.649 766.598 182.139 769.284 176.791C771.97 171.442 776 165.759 781.372 159.742C787.08 153.391 794.468 148.042 803.534 143.696C812.6 139.016 824.184 136.676 838.287 136.676C856.083 136.676 870.018 139.852 880.091 146.203C890.5 152.555 898.223 161.079 903.26 171.777C908.296 182.139 911.486 193.338 912.829 205.373C914.173 217.407 914.844 228.94 914.844 239.971V340.759H883.617V239.971C883.617 217.908 879.755 200.024 872.032 186.318C864.645 172.612 849.871 165.759 827.71 165.759C812.6 165.759 800.176 169.436 790.438 176.791C781.036 183.811 774.153 193.338 769.788 205.373C765.759 217.073 763.744 229.943 763.744 243.983V340.759H730.502Z" fill="black"/>
<path d="M991.547 340.759C979.123 340.759 970.393 337.416 965.356 330.731C960.656 324.045 958.305 314.852 958.305 303.152V160.745H926.07V136.676C936.815 136.676 944.706 135.841 949.743 134.169C955.115 132.163 958.473 127.483 959.816 120.129C961.159 112.775 961.831 100.74 961.831 84.0258H989.533V136.676H1036.88V160.745H989.533V314.685H1037.38V340.759H991.547Z" fill="black"/>
<path d="M1151.04 345.774C1128.55 345.774 1109.91 340.759 1095.14 330.731C1080.7 320.368 1069.95 307.163 1062.9 291.117C1056.19 274.737 1052.83 257.856 1052.83 240.473C1052.83 221.418 1056.52 204.035 1063.91 188.324C1071.63 172.278 1082.71 159.575 1097.15 150.215C1111.93 140.855 1129.55 136.175 1150.04 136.175C1176.23 136.175 1198.05 144.699 1215.51 161.748C1232.97 178.462 1242.38 201.027 1243.72 229.441C1244.06 230.778 1244.22 232.784 1244.22 235.458C1244.22 237.798 1244.22 239.971 1244.22 241.977H1084.06C1084.06 265.712 1089.76 284.432 1101.18 298.138C1112.93 311.509 1129.39 318.195 1150.54 318.195C1166.32 318.195 1179.75 314.183 1190.83 306.16C1202.25 298.138 1209.3 287.273 1211.99 273.567H1243.72C1240.36 294.293 1230.46 311.509 1214 325.215C1197.55 338.921 1176.56 345.774 1151.04 345.774ZM1085.06 224.427H1210.98C1210.98 217.407 1208.97 209.05 1204.94 199.355C1201.24 189.661 1194.86 181.304 1185.8 174.284C1177.07 166.929 1164.98 163.252 1149.53 163.252C1135.43 163.252 1123.85 166.261 1114.78 172.278C1105.71 178.295 1098.83 185.984 1094.13 195.344C1089.43 204.704 1086.41 214.398 1085.06 224.427Z" fill="black"/>
<path d="M1275.03 340.759V136.676H1304.25L1307.77 190.33C1309.79 181.304 1313.82 172.612 1319.86 164.255C1325.9 155.898 1334.13 149.212 1344.54 144.198C1355.28 138.849 1368.55 136.342 1384.33 136.676H1393.9V172.278H1383.83C1362.34 172.278 1346.05 175.454 1334.97 181.805C1324.22 187.822 1316.84 196.347 1312.81 207.378C1309.11 218.41 1307.27 231.113 1307.27 245.487V340.759H1275.03Z" fill="black"/>
<path d="M1496.1 345.774C1463.2 345.774 1438.52 336.079 1422.06 316.691C1405.95 296.968 1397.89 271.896 1397.89 241.476C1397.55 210.721 1405.61 185.649 1422.06 166.261C1438.85 146.538 1463.53 136.509 1496.1 136.175C1528.34 136.175 1552.68 145.869 1569.14 165.258C1585.92 184.312 1594.32 209.718 1594.32 241.476C1594.32 261.199 1590.79 278.916 1583.74 294.628C1576.69 310.339 1565.95 322.875 1551.51 332.235C1537.07 341.261 1518.6 345.774 1496.1 345.774ZM1496.1 317.693C1513.56 317.693 1527 313.849 1536.4 306.16C1546.13 298.472 1552.85 288.777 1556.54 277.077C1560.57 265.043 1562.59 252.841 1562.59 240.473C1562.59 228.104 1560.57 215.903 1556.54 203.868C1552.85 191.834 1546.13 181.972 1536.4 174.284C1527 166.595 1513.56 162.751 1496.1 162.751C1478.64 162.751 1465.04 166.595 1455.31 174.284C1445.91 181.972 1439.19 191.834 1435.16 203.868C1431.47 215.903 1429.62 228.104 1429.62 240.473C1429.62 252.841 1431.47 265.043 1435.16 277.077C1439.19 288.777 1445.91 298.472 1455.31 306.16C1465.04 313.849 1478.64 317.693 1496.1 317.693Z" fill="black"/>
<path d="M1732.84 345.774C1719.75 345.774 1708.5 343.601 1699.1 339.255C1690.03 334.575 1682.64 329.226 1676.94 323.209C1671.23 317.192 1666.86 311.509 1663.84 306.16C1661.15 300.812 1659.48 297.302 1658.8 295.63H1657.8V425H1624.55V136.676H1652.26L1657.8 187.822H1658.8C1659.48 186.151 1661.15 182.641 1663.84 177.292C1666.53 171.944 1670.56 166.094 1675.93 159.742C1681.64 153.391 1689.02 148.042 1698.09 143.696C1707.49 139.016 1719.08 136.676 1732.84 136.676C1752.65 136.676 1769.11 141.189 1782.2 150.215C1795.63 159.241 1805.71 171.777 1812.42 187.822C1819.47 203.534 1823 221.585 1823 241.977C1823 272.397 1815.28 297.302 1799.83 316.691C1784.39 336.079 1762.06 345.774 1732.84 345.774ZM1726.3 317.192C1742.08 317.192 1754.67 313.515 1764.07 306.16C1773.81 298.806 1780.69 289.446 1784.72 278.08C1789.09 266.38 1791.27 254.179 1791.27 241.476C1791.27 228.438 1788.92 216.237 1784.22 204.871C1779.52 193.505 1772.13 184.312 1762.06 177.292C1752.32 169.938 1739.39 166.261 1723.27 166.261C1703.8 166.261 1688.18 173.114 1676.43 186.819C1664.68 200.191 1658.8 218.41 1658.8 241.476C1658.8 264.876 1665.02 283.429 1677.44 297.135C1689.86 310.506 1706.15 317.192 1726.3 317.192Z" fill="black"/>
</svg>
