<svg width="39" height="38" viewBox="0 0 39 38" fill="none" xmlns="http://www.w3.org/2000/svg">
<g clip-path="url(#clip0_1126_11890)">
<path fill-rule="evenodd" clip-rule="evenodd" d="M29.8945 2H8.79249C5.00728 2 2 5.00495 2 8.63687V29.3654C2 32.9973 5.00728 36.0022 8.79249 36.0022H29.8945C33.6797 36.0022 36.6869 32.9973 36.6869 29.3654V8.63687C36.6869 5.00495 33.6797 2 29.8945 2ZM8.79249 0H29.8945C34.7504 0 38.6869 3.86686 38.6869 8.63687V29.3654C38.6869 34.1354 34.7504 38.0022 29.8945 38.0022H8.79249C3.93653 38.0022 0 34.1354 0 29.3654V8.63687C0 3.86686 3.93653 0 8.79249 0Z" fill="white"/>
<path d="M15.8915 29.1906V20.3757L24.6107 29.1906H29.4617V28.9612L19.4321 18.9217L28.6898 9.39715V9.28464H23.8074L15.8915 17.7014V9.28464H11.9604V29.1906H15.8915Z" fill="white"/>
</g>
<defs>
<clipPath id="clip0_1126_11890">
<rect width="38.6869" height="38.0022" fill="white"/>
</clipPath>
</defs>
</svg>
