<svg viewBox="0 0 161 28" fill="none" xmlns="http://www.w3.org/2000/svg">
<path d="M52.6354 9.13997H52.5297L51.1037 12.0917L47.3275 19.1121L43.5513 12.0917L42.1253 9.13997H42.0197V22.4627H38.7188V3.90131H42.6535L47.3803 12.9693H47.486L52.16 3.90131H55.9363V22.4627H52.6354V9.13997Z" fill="#989CAE"/>
<path d="M65.1102 22.7818C64.0892 22.7818 63.1737 22.6134 62.3639 22.2765C61.5717 21.922 60.8939 21.4345 60.3306 20.814C59.7848 20.1758 59.3623 19.4134 59.063 18.527C58.7637 17.6229 58.6141 16.6124 58.6141 15.4955C58.6141 14.3964 58.7549 13.4036 59.0366 12.5172C59.3359 11.6308 59.7584 10.8773 60.3042 10.2568C60.8499 9.61864 61.5189 9.13111 62.3111 8.79428C63.1033 8.43971 64.0011 8.26243 65.0046 8.26243C66.0785 8.26243 67.0116 8.44858 67.8038 8.82087C68.596 9.19316 69.2474 9.69841 69.7579 10.3366C70.2684 10.9748 70.6469 11.7194 70.8934 12.5704C71.1575 13.4036 71.2895 14.2989 71.2895 15.2562V16.3731H62.1262V16.7188C62.1262 17.7293 62.4079 18.5448 62.9713 19.1652C63.5346 19.768 64.3708 20.0694 65.4799 20.0694C66.325 20.0694 67.0116 19.8921 67.5397 19.5375C68.0854 19.183 68.5696 18.7309 68.9921 18.1813L70.8142 20.2289C70.2508 21.0267 69.4762 21.6561 68.4904 22.117C67.5221 22.5602 66.3954 22.7818 65.1102 22.7818ZM65.0574 10.8153C64.1596 10.8153 63.4466 11.1167 62.9185 11.7194C62.3903 12.3222 62.1262 13.1022 62.1262 14.0595V14.2723H67.7774V14.0329C67.7774 13.0756 67.5397 12.3045 67.0644 11.7194C66.6067 11.1167 65.9377 10.8153 65.0574 10.8153Z" fill="#989CAE"/>
<path d="M78.0396 22.4627C76.8777 22.4627 75.9887 22.1613 75.3725 21.5585C74.7739 20.9381 74.4747 20.0605 74.4747 18.9259V11.2939H72.4413V8.58154H73.4976C74.0081 8.58154 74.3514 8.46631 74.5275 8.23584C74.7211 7.98765 74.818 7.62422 74.818 7.14556V4.77885H77.8548V8.58154H80.6803V11.2939H77.8548V19.7503H80.4691V22.4627H78.0396Z" fill="#989CAE"/>
<path d="M83.084 22.4627V8.58154H86.4641V11.4535H86.5961C86.6842 11.0812 86.8162 10.7266 86.9923 10.3898C87.1859 10.0352 87.4324 9.725 87.7317 9.45908C88.0309 9.19316 88.383 8.98042 88.7879 8.82087C89.2105 8.66131 89.6946 8.58154 90.2403 8.58154H90.9797V11.7992H89.9235C88.7791 11.7992 87.9165 11.9676 87.3355 12.3045C86.7546 12.6413 86.4641 13.1909 86.4641 13.9532V22.4627H83.084Z" fill="#989CAE"/>
<path d="M98.26 22.7818C97.2742 22.7818 96.3851 22.6134 95.5929 22.2765C94.8183 21.9397 94.1493 21.4522 93.586 20.814C93.0402 20.1758 92.6177 19.4134 92.3185 18.527C92.0192 17.6229 91.8695 16.6124 91.8695 15.4955C91.8695 14.3786 92.0192 13.377 92.3185 12.4906C92.6177 11.6042 93.0402 10.8507 93.586 10.2303C94.1493 9.59204 94.8183 9.10452 95.5929 8.76768C96.3851 8.43085 97.2742 8.26243 98.26 8.26243C99.2459 8.26243 100.135 8.43085 100.927 8.76768C101.719 9.10452 102.388 9.59204 102.934 10.2303C103.497 10.8507 103.929 11.6042 104.228 12.4906C104.527 13.377 104.677 14.3786 104.677 15.4955C104.677 16.6124 104.527 17.6229 104.228 18.527C103.929 19.4134 103.497 20.1758 102.934 20.814C102.388 21.4522 101.719 21.9397 100.927 22.2765C100.135 22.6134 99.2459 22.7818 98.26 22.7818ZM98.26 20.0428C99.1579 20.0428 99.8621 19.768 100.373 19.2184C100.883 18.6689 101.138 17.8622 101.138 16.7985V14.2191C101.138 13.1731 100.883 12.3754 100.373 11.8258C99.8621 11.2762 99.1579 11.0014 98.26 11.0014C97.3798 11.0014 96.6844 11.2762 96.1739 11.8258C95.6633 12.3754 95.4081 13.1731 95.4081 14.2191V16.7985C95.4081 17.8622 95.6633 18.6689 96.1739 19.2184C96.6844 19.768 97.3798 20.0428 98.26 20.0428Z" fill="#989CAE"/>
<path d="M107.145 8.58154H110.526V10.8685H110.631C110.878 10.0707 111.344 9.44135 112.031 8.98042C112.717 8.50176 113.518 8.26243 114.434 8.26243C116.194 8.26243 117.532 8.89178 118.448 10.1505C119.381 11.3915 119.847 13.1731 119.847 15.4955C119.847 17.8356 119.381 19.635 118.448 20.8937C117.532 22.1524 116.194 22.7818 114.434 22.7818C113.518 22.7818 112.717 22.5425 112.031 22.0638C111.362 21.5851 110.895 20.9469 110.631 20.1492H110.526V27.7811H107.145V8.58154ZM113.351 19.963C114.231 19.963 114.944 19.6705 115.49 19.0855C116.036 18.5004 116.309 17.7115 116.309 16.7188V14.3255C116.309 13.3327 116.036 12.5438 115.49 11.9588C114.944 11.356 114.231 11.0546 113.351 11.0546C112.541 11.0546 111.863 11.2585 111.318 11.6662C110.79 12.074 110.526 12.6147 110.526 13.2884V17.7027C110.526 18.4295 110.79 18.988 111.318 19.378C111.863 19.768 112.541 19.963 113.351 19.963Z" fill="#989CAE"/>
<path d="M127.918 22.7818C126.932 22.7818 126.043 22.6134 125.25 22.2765C124.476 21.9397 123.807 21.4522 123.243 20.814C122.698 20.1758 122.275 19.4134 121.976 18.527C121.677 17.6229 121.527 16.6124 121.527 15.4955C121.527 14.3786 121.677 13.377 121.976 12.4906C122.275 11.6042 122.698 10.8507 123.243 10.2303C123.807 9.59204 124.476 9.10452 125.25 8.76768C126.043 8.43085 126.932 8.26243 127.918 8.26243C128.903 8.26243 129.792 8.43085 130.585 8.76768C131.377 9.10452 132.046 9.59204 132.592 10.2303C133.155 10.8507 133.586 11.6042 133.886 12.4906C134.185 13.377 134.334 14.3786 134.334 15.4955C134.334 16.6124 134.185 17.6229 133.886 18.527C133.586 19.4134 133.155 20.1758 132.592 20.814C132.046 21.4522 131.377 21.9397 130.585 22.2765C129.792 22.6134 128.903 22.7818 127.918 22.7818ZM127.918 20.0428C128.815 20.0428 129.52 19.768 130.03 19.2184C130.541 18.6689 130.796 17.8622 130.796 16.7985V14.2191C130.796 13.1731 130.541 12.3754 130.03 11.8258C129.52 11.2762 128.815 11.0014 127.918 11.0014C127.037 11.0014 126.342 11.2762 125.831 11.8258C125.321 12.3754 125.066 13.1731 125.066 14.2191V16.7985C125.066 17.8622 125.321 18.6689 125.831 19.2184C126.342 19.768 127.037 20.0428 127.918 20.0428Z" fill="#989CAE"/>
<path d="M140.183 22.4627C139.021 22.4627 138.167 22.1702 137.622 21.5851C137.076 21.0001 136.803 20.1758 136.803 19.1121V2.78443H140.183V19.7503H142.005V22.4627H140.183Z" fill="#989CAE"/>
<path d="M145.727 6.56053C145.023 6.56053 144.512 6.40097 144.195 6.08187C143.896 5.76276 143.747 5.35501 143.747 4.85862V4.32678C143.747 3.83039 143.896 3.42265 144.195 3.10354C144.512 2.78443 145.023 2.62488 145.727 2.62488C146.414 2.62488 146.915 2.78443 147.232 3.10354C147.549 3.42265 147.708 3.83039 147.708 4.32678V4.85862C147.708 5.35501 147.549 5.76276 147.232 6.08187C146.915 6.40097 146.414 6.56053 145.727 6.56053ZM144.037 8.58154H147.417V22.4627H144.037V8.58154Z" fill="#989CAE"/>
<path d="M155.323 22.7818C154.002 22.7818 152.893 22.5602 151.995 22.117C151.097 21.6561 150.305 21.0267 149.619 20.2289L151.678 18.2079C152.189 18.793 152.743 19.2539 153.342 19.5907C153.958 19.9276 154.662 20.096 155.455 20.096C156.264 20.096 156.845 19.9541 157.197 19.6705C157.567 19.3868 157.752 18.9968 157.752 18.5004C157.752 18.0927 157.62 17.7736 157.356 17.5431C157.109 17.2949 156.678 17.1265 156.062 17.0379L154.689 16.8517C153.192 16.6567 152.048 16.2312 151.256 15.5753C150.481 14.9016 150.094 13.9266 150.094 12.6501C150.094 11.9765 150.217 11.3737 150.464 10.8419C150.71 10.2923 151.062 9.83137 151.52 9.45908C151.978 9.06906 152.523 8.77655 153.157 8.58154C153.809 8.3688 154.53 8.26243 155.323 8.26243C155.992 8.26243 156.581 8.31562 157.092 8.42199C157.62 8.51063 158.095 8.65245 158.518 8.84746C158.94 9.02474 159.328 9.25521 159.68 9.53886C160.032 9.80478 160.375 10.1062 160.71 10.443L158.729 12.4374C158.324 12.0119 157.84 11.6574 157.277 11.3737C156.713 11.0901 156.097 10.9482 155.428 10.9482C154.689 10.9482 154.152 11.0812 153.817 11.3471C153.5 11.6131 153.342 11.9588 153.342 12.3842C153.342 12.8452 153.474 13.1997 153.738 13.4479C154.02 13.6784 154.486 13.8468 155.138 13.9532L156.537 14.1393C159.512 14.5648 161 15.9299 161 18.2345C161 18.9082 160.859 19.5287 160.578 20.096C160.313 20.6455 159.935 21.1242 159.442 21.532C158.949 21.922 158.351 22.2322 157.646 22.4627C156.96 22.6754 156.185 22.7818 155.323 22.7818Z" fill="#989CAE"/>
<path d="M3.68089 25.4875V6.95093C3.68492 6.52633 3.77972 6.13681 3.96529 5.78228C4.1549 5.42363 4.41913 5.16873 4.758 4.95024C5.09686 4.72763 5.65534 4.65961 6.10312 4.65961C6.52267 4.65961 7.0822 4.81553 7.39686 5.00928C7.71556 5.20303 7.96366 5.46893 8.14116 5.80697C8.31866 6.14088 8.40943 6.5222 8.41346 6.95093V19.1636C8.41346 21.1446 8.41346 24.5984 13.146 24.1043C17.8786 23.6103 17.8786 20.5718 17.8786 19.1636V8.99327C17.8826 8.56866 17.9774 8.179 18.163 7.82447C18.3526 7.46582 18.6168 7.21092 18.9557 6.99243C19.2946 6.76982 19.8303 6.7018 20.2781 6.7018C20.6977 6.7018 21.2799 6.85772 21.5946 7.05147C21.9133 7.24522 22.1614 7.51112 22.3389 7.84916C22.5164 8.18307 22.6071 8.56454 22.6112 8.99327V22.7156C22.6112 22.9172 22.79 23.0715 22.9885 23.0413L25.9711 22.5871C26.1315 22.5627 26.25 22.4243 26.25 22.2614V3.98986C26.25 3.82603 26.1301 3.6871 25.9685 3.66382L14.5118 2.01266C14.314 1.98416 14.137 2.13398 14.137 2.33452V19.1962L14.137 19.2057C14.1371 19.5257 14.1374 20.1956 13.1301 20.3054C12.113 20.4163 12.113 19.641 12.113 19.1962V1.98061C12.113 1.81678 11.993 1.67785 11.8315 1.65457L0.374756 0.00340557C0.177011 -0.0250938 0 0.128908 0 0.329448V25.9205C0 26.121 0.176806 26.2749 0.374456 26.2466L3.3991 25.8136C3.56078 25.7904 3.68089 25.6514 3.68089 25.4875Z" fill="#989CAE"/>
</svg>