<svg viewBox="0 0 26 26" fill="none" xmlns="http://www.w3.org/2000/svg">
<path d="M3.68089 25.4875V6.95093C3.68492 6.52633 3.77972 6.13681 3.96529 5.78228C4.1549 5.42363 4.41913 5.16873 4.758 4.95024C5.09686 4.72763 5.65534 4.65961 6.10312 4.65961C6.52267 4.65961 7.0822 4.81553 7.39686 5.00928C7.71556 5.20303 7.96366 5.46893 8.14116 5.80697C8.31866 6.14088 8.40943 6.5222 8.41346 6.95093V19.1636C8.41346 21.1446 8.41346 24.5984 13.146 24.1043C17.8786 23.6103 17.8786 20.5718 17.8786 19.1636V8.99327C17.8826 8.56866 17.9774 8.179 18.163 7.82447C18.3526 7.46582 18.6168 7.21092 18.9557 6.99243C19.2946 6.76982 19.8303 6.7018 20.2781 6.7018C20.6977 6.7018 21.2799 6.85772 21.5946 7.05147C21.9133 7.24522 22.1614 7.51112 22.3389 7.84916C22.5164 8.18307 22.6071 8.56454 22.6112 8.99327V22.7156C22.6112 22.9172 22.79 23.0715 22.9885 23.0413L25.9711 22.5871C26.1315 22.5627 26.25 22.4243 26.25 22.2614V3.98986C26.25 3.82603 26.1301 3.6871 25.9685 3.66382L14.5118 2.01266C14.314 1.98416 14.137 2.13398 14.137 2.33452V19.1962L14.137 19.2057C14.1371 19.5257 14.1374 20.1956 13.1301 20.3054C12.113 20.4163 12.113 19.641 12.113 19.1962V1.98061C12.113 1.81678 11.993 1.67785 11.8315 1.65457L0.374756 0.00340557C0.177011 -0.0250938 0 0.128908 0 0.329448V25.9205C0 26.121 0.176806 26.2749 0.374456 26.2466L3.3991 25.8136C3.56078 25.7904 3.68089 25.6514 3.68089 25.4875Z" fill="#989CAE"/>
</svg>