<svg width="192" height="16" viewBox="0 0 192 16" fill="none" xmlns="http://www.w3.org/2000/svg">
<path fill-rule="evenodd" clip-rule="evenodd" d="M9.00163 8.63126L18.7534 1.19052C19.7536 0.39684 20.7038 0 21.6039 0C22.9542 0 24.6045 0 25.0545 0C25.5046 0 25.7297 0.29763 25.7297 0.59526C25.7297 0.892889 25.5046 1.19052 25.0545 1.19052C24.6045 1.19052 23.4042 1.19052 22.3541 1.19052C21.3039 1.19052 20.7038 1.63696 19.8036 2.52985L9.00163 13.8398C7.7014 15.3279 6.25113 16.0472 4.65084 15.9976C2.25041 15.9232 0 14.5839 0 12.2028C0 9.97034 0 7.73785 0 5.50537C0 5.17705 0.269344 4.91089 0.601597 4.91089H8.40003C8.73229 4.91089 9.00163 5.17705 9.00163 5.50537V8.63126Z" fill="#0F031B"/>
<path d="M36.1608 15.7997C34.9894 15.7997 33.8181 15.5829 32.6468 15.1493C31.4755 14.7156 30.491 14.1434 29.6934 13.4325L31.4611 10.8628C32.0935 11.4386 32.8318 11.9024 33.6762 12.2543C34.5206 12.6062 35.3416 12.7821 36.1392 12.7821C36.8434 12.7821 37.4417 12.6435 37.9339 12.3662C38.4262 12.089 38.6723 11.7336 38.6723 11.2999C38.6723 11.1293 38.6381 10.9747 38.5699 10.8361C38.5016 10.6975 38.3866 10.5713 38.225 10.4576C38.0633 10.3438 37.9088 10.2461 37.7615 10.1643C37.6141 10.0826 37.3968 9.9973 37.1093 9.90844C36.8219 9.81958 36.5901 9.75205 36.4141 9.70585C36.238 9.65964 35.9703 9.59389 35.611 9.50858C32.0612 8.66266 30.2862 7.05967 30.2862 4.69962C30.2862 3.34898 30.8252 2.26137 31.9031 1.43677C32.981 0.612173 34.4002 0.199875 36.1608 0.199875C37.289 0.199875 38.322 0.370481 39.2597 0.711694C40.1975 1.05291 40.961 1.50075 41.5503 2.05522L39.955 4.63564C39.5094 4.21623 38.9382 3.87502 38.2411 3.612C37.5441 3.34898 36.8434 3.21747 36.1392 3.21747C35.4565 3.21747 34.896 3.34365 34.4577 3.59601C34.0193 3.84836 33.8002 4.17358 33.8002 4.57166C33.8002 4.80625 33.8756 5.0195 34.0265 5.21144C34.1774 5.40337 34.3948 5.56687 34.6787 5.70193C34.9625 5.83699 35.2535 5.95073 35.5518 6.04314C35.85 6.13555 36.1931 6.22086 36.5812 6.29905C36.847 6.35592 37.095 6.41457 37.3249 6.47499C37.5549 6.53541 37.871 6.63493 38.2735 6.77355C38.6759 6.91217 39.0388 7.06145 39.3621 7.22139C39.6855 7.38133 40.0304 7.59104 40.3969 7.8505C40.7634 8.10997 41.0706 8.39076 41.3185 8.69287C41.5664 8.99499 41.773 9.35752 41.9383 9.78049C42.1036 10.2034 42.1862 10.6566 42.1862 11.14C42.1862 12.0428 41.9204 12.8514 41.3886 13.5658C40.8568 14.2802 40.1346 14.8311 39.222 15.2186C38.3094 15.606 37.289 15.7997 36.1608 15.7997ZM61.047 0.466447H64.464V15.5331H61.047V9.55123H54.9353V15.5331H51.5076V0.466447H54.9353V6.36303H61.047V0.466447ZM77.719 12.3449H84.7361V15.5331H74.2913V0.466447H84.6284V3.65465H77.719V6.36303H83.8954V9.55123H77.719V12.3449ZM102.762 15.5331L99.6254 10.8682H97.9762V15.5331H94.5485V0.466447H101.156C102.672 0.466447 103.933 0.946278 104.939 1.90594C105.946 2.8656 106.449 4.06695 106.449 5.51C106.449 6.95304 106.165 7.95903 105.597 8.75164C105.029 9.54424 104.268 10.1254 103.312 10.495L106.869 15.5331H102.762ZM97.9762 3.65465V7.9146H101.081C101.605 7.9146 102.045 7.73511 102.401 7.37612C102.757 7.01714 102.98 6.50691 102.98 5.77899C102.98 5.05107 102.759 4.561 102.406 4.19846C102.054 3.83592 101.612 3.65465 101.081 3.65465H97.9762ZM119.464 12.3449H125.96V15.5331H116.036V0.466447H119.464V12.3449ZM143.318 15.2026C142.326 15.6006 141.266 15.7997 140.138 15.7997C139.01 15.7997 137.946 15.5989 136.947 15.1972C135.948 14.7956 135.093 14.25 134.382 13.5605C133.67 12.8709 133.11 12.0446 132.7 11.0814C132.291 10.1181 132.086 9.08918 132.086 7.99445C132.086 6.89973 132.291 5.87076 132.7 4.90754C133.11 3.94433 133.67 3.11795 134.382 2.42842C135.093 1.73889 135.948 1.19508 136.947 0.796997C137.946 0.398916 139.01 0.199875 140.138 0.199875C141.64 0.199875 143.007 0.53931 144.239 1.21818C145.472 1.89705 146.44 2.83183 147.144 4.02252C147.848 5.21321 148.201 6.53719 148.201 7.99445C148.201 9.08918 147.994 10.1181 147.581 11.0814C147.168 12.0446 146.603 12.8709 145.888 13.5605C145.173 14.25 144.317 14.7974 143.318 15.2026ZM136.893 11.2466C137.763 12.1068 138.844 12.5368 140.138 12.5368C141.431 12.5368 142.513 12.105 143.382 11.2413C144.252 10.3776 144.687 9.29532 144.687 7.99445C144.687 6.69358 144.252 5.61129 143.382 4.7476C142.513 3.8839 141.431 3.45206 140.138 3.45206C138.844 3.45206 137.763 3.8839 136.893 4.7476C136.024 5.61129 135.589 6.69358 135.589 7.99445C135.589 9.29532 136.024 10.3794 136.893 11.2466ZM162.401 15.7997C161.273 15.7997 160.21 15.5989 159.211 15.1972C158.212 14.7956 157.357 14.25 156.645 13.5605C155.934 12.8709 155.374 12.0446 154.964 11.0814C154.554 10.1181 154.35 9.08918 154.35 7.99445C154.35 6.89973 154.554 5.87076 154.964 4.90754C155.374 3.94433 155.934 3.11795 156.645 2.42842C157.357 1.73889 158.212 1.19508 159.211 0.796997C160.21 0.398916 161.273 0.199875 162.401 0.199875C163.817 0.199875 165.112 0.500213 166.287 1.10089C167.462 1.70157 168.413 2.53149 169.138 3.59068L166.174 5.40337C165.757 4.79914 165.218 4.32286 164.557 3.97454C163.896 3.62622 163.178 3.45206 162.401 3.45206C161.108 3.45206 160.026 3.8839 159.157 4.7476C158.287 5.61129 157.853 6.69358 157.853 7.99445C157.853 9.29532 158.287 10.3776 159.157 11.2413C160.026 12.105 161.108 12.5368 162.401 12.5368C163.185 12.5368 163.905 12.3645 164.563 12.0197C165.22 11.6749 165.757 11.2004 166.174 10.5962L169.138 12.4089C168.413 13.4681 167.462 14.298 166.287 14.8987C165.112 15.4994 163.817 15.7997 162.401 15.7997ZM186.568 15.5331L181.954 10.159L180.683 11.5772V15.5331H177.255V0.466447H180.683V6.97081L186.352 0.466447H190.696L184.164 7.71722L191.03 15.5331H186.568Z" fill="#0F031B"/>
</svg>
