<svg viewBox="0 0 26 16" fill="none" xmlns="http://www.w3.org/2000/svg">
<path fill-rule="evenodd" clip-rule="evenodd" d="M9.00163 8.63126L18.7534 1.19052C19.7536 0.39684 20.7038 0 21.6039 0C22.9542 0 24.6045 0 25.0545 0C25.5046 0 25.7297 0.29763 25.7297 0.59526C25.7297 0.892889 25.5046 1.19052 25.0545 1.19052C24.6045 1.19052 23.4042 1.19052 22.3541 1.19052C21.3039 1.19052 20.7038 1.63696 19.8036 2.52985L9.00163 13.8398C7.7014 15.3279 6.25113 16.0472 4.65084 15.9976C2.25041 15.9232 0 14.5839 0 12.2028C0 9.97034 0 7.73785 0 5.50537C0 5.17705 0.269344 4.91089 0.601597 4.91089H8.40003C8.73229 4.91089 9.00163 5.17705 9.00163 5.50537V8.63126Z" fill="#0F031B"/>
</svg>