<svg width="131" height="31" viewBox="0 0 131 31" fill="none" xmlns="http://www.w3.org/2000/svg">
<path d="M38.2417 18.2774H41.4163C41.5426 19.7987 42.8113 21.0731 45.3544 21.0731C47.3866 21.0731 48.7815 20.057 48.7815 18.662C48.7815 17.267 47.4612 16.9341 45.3544 16.5035L44.0857 16.2509C41.5483 15.7458 38.5 15.1086 38.5 11.6814C38.5 8.25421 41.0374 6.47461 45.1018 6.47461C48.9136 6.47461 51.5772 8.38051 51.7035 11.6814H48.529C48.4027 10.1601 47.134 9.14402 44.8492 9.14402C43.0696 9.14402 41.6746 9.90752 41.6746 11.3025C41.6746 12.6975 43.1729 13.0821 45.1018 13.461L46.3705 13.7136C48.9078 14.2188 51.9561 14.856 51.9561 18.2831C51.9561 21.7103 49.4188 23.7425 45.1018 23.7425C41.0374 23.7425 38.3737 21.7103 38.2474 18.2831L38.2417 18.2774Z" fill="#141414"/>
<path d="M54.8035 20.1842V13.2035H52.645V10.9188H52.8976C54.6772 10.9188 55.1824 10.2815 55.1824 9.01285V7.49158H57.8461V10.7925H60.6418V13.2035H57.8461V19.8053C57.8461 21.074 58.4833 21.3266 59.4994 21.3266H60.6418V23.4851C59.9299 23.5597 59.0401 23.6113 58.4833 23.6113C56.1985 23.6113 54.8035 22.7215 54.8035 20.1842Z" fill="#141414"/>
<path d="M61.8047 19.9309C61.8047 17.6461 63.458 16.475 65.8691 16.1191L68.4064 15.7402C69.17 15.6139 69.9277 15.3613 69.9277 14.4715C69.9277 13.3291 68.7853 12.8182 67.7692 12.8182C66.248 12.8182 65.2319 13.5817 65.1056 15.103H62.0573C62.0573 12.3073 64.4684 10.5334 67.7692 10.5334C71.0701 10.5334 73.1023 12.3131 73.1023 15.3556V23.4844H70.1803V21.9631C69.2905 23.2318 67.8955 23.7427 66.3742 23.7427C63.8369 23.7427 61.8047 22.2214 61.8047 19.9309ZM70.0598 18.6622V17.5198L67.6487 17.8987C66.1274 18.1283 64.9793 18.5359 64.9793 19.8046C64.9793 20.947 65.9954 21.4579 67.0115 21.4579C68.5327 21.4579 70.0598 20.4418 70.0598 18.6622Z" fill="#141414"/>
<path d="M75.2095 23.4844V10.786H78.1315V12.5656C78.6366 11.5495 79.5264 10.5334 81.306 10.5334C81.662 10.5334 82.1672 10.5851 82.5747 10.6597V13.3291C82.1442 13.2545 81.6333 13.2029 81.306 13.2029C79.0213 13.2029 78.2578 14.7241 78.2578 17.0146V23.4901H75.2095V23.4844Z" fill="#141414"/>
<path d="M83.2996 24.1215H86.3479C86.4742 25.1892 87.4903 25.9011 89.3445 25.9011C91.0437 25.9011 92.4445 24.885 92.4445 22.8528V21.3315C92.0656 22.095 90.8428 23.1111 88.891 23.1111C85.3375 23.1111 83.0527 20.5737 83.0527 16.8882C83.0527 13.4611 85.3375 10.5391 88.891 10.5391C90.8485 10.5391 92.1402 11.5552 92.5707 12.3187V10.7974H95.4927V22.8585C95.4927 26.412 93.0817 28.3179 89.0919 28.3179C85.7164 28.3179 83.4316 26.7162 83.2996 24.1272V24.1215ZM92.4387 16.8825C92.4387 14.9766 91.5489 13.0707 89.2641 13.0707C87.2319 13.0707 86.0895 14.9766 86.0895 16.8825C86.0895 19.2936 87.2319 20.6943 89.2641 20.6943C91.5489 20.6943 92.4387 18.7884 92.4387 16.8825Z" fill="#141414"/>
<path d="M97.3574 19.9309C97.3574 17.6461 99.0107 16.475 101.422 16.1191L103.959 15.7402C104.723 15.6139 105.48 15.3613 105.48 14.4715C105.48 13.3291 104.338 12.8182 103.322 12.8182C101.801 12.8182 100.785 13.5817 100.658 15.103H97.61C97.61 12.3073 100.021 10.5334 103.322 10.5334C106.623 10.5334 108.655 12.3131 108.655 15.3556V23.4844H105.733V21.9631C104.843 23.2318 103.448 23.7427 101.927 23.7427C99.3896 23.7427 97.3574 22.2214 97.3574 19.9309ZM105.612 18.6622V17.5198L103.201 17.8987C101.68 18.1283 100.532 18.5359 100.532 19.8046C100.532 20.947 101.548 21.4579 102.564 21.4579C104.085 21.4579 105.612 20.4418 105.612 18.6622Z" fill="#141414"/>
<path d="M111.692 20.1842V13.2035H109.533V10.9188H109.786C111.565 10.9188 112.071 10.2815 112.071 9.01285V7.49158H114.734V10.7925H117.53V13.2035H114.734V19.8053C114.734 21.074 115.371 21.3266 116.388 21.3266H117.53V23.4851C116.818 23.5597 115.928 23.6113 115.371 23.6113C113.087 23.6113 111.692 22.7215 111.692 20.1842Z" fill="#141414"/>
<path d="M130.316 18.1512H121.044C121.377 20.3097 122.772 21.3258 124.472 21.3258C125.993 21.3258 127.009 20.4647 127.52 19.4486L130.057 20.4417C129.041 22.4739 127.262 23.7426 124.472 23.7426C120.533 23.7426 117.996 21.2052 117.996 17.1408C117.996 13.329 120.533 10.5391 124.219 10.5391C128.157 10.5391 130.316 13.3348 130.316 17.6517V18.1569V18.1512ZM127.267 15.9927C127.267 14.0868 125.872 12.9444 124.219 12.9444C122.566 12.9444 121.377 13.9375 121.044 15.9927H127.267Z" fill="#141414"/>
<path d="M18.5821 1.23424L19.4087 3.16884C21.0276 6.96342 24.0472 9.983 27.8417 11.6019L29.7764 12.4285C30.2815 12.6467 30.6949 12.9509 31.0106 13.3241C30.0404 6.41806 24.5868 0.95869 17.6865 0C18.0539 0.315736 18.3639 0.729064 18.5821 1.23424Z" fill="#999999"/>
<path d="M1.24059 12.4285L3.17519 11.6019C6.96977 9.983 9.98935 6.96342 11.614 3.16884L12.4406 1.23424C12.6588 0.729064 12.9688 0.315736 13.3362 0C6.4244 0.95869 0.970778 6.41806 0.00634766 13.3183C0.322084 12.9509 0.735411 12.6409 1.24059 12.4228V12.4285Z" fill="#999999"/>
<path d="M29.7724 18.5713L27.8378 19.398C24.0433 21.0168 21.0237 24.0422 19.4048 27.8367L18.5782 29.7656C18.36 30.2708 18.05 30.6841 17.6826 30.9998C24.5829 30.0354 30.0365 24.5818 31.0009 17.6815C30.6852 18.0489 30.2719 18.3589 29.7667 18.5771L29.7724 18.5713Z" fill="#999999"/>
<path d="M12.4343 29.7647L11.6076 27.8359C9.98874 24.0413 6.96342 21.0217 3.16884 19.3971L1.23424 18.5705C0.729064 18.3523 0.315736 18.0481 0 17.6749C0.96443 24.5752 6.41806 30.0346 13.3183 30.9933C12.9509 30.6775 12.6409 30.2642 12.4228 29.759L12.4343 29.7647Z" fill="#999999"/>
<path d="M8.47641 13.9843L9.42936 13.5767C11.3008 12.7787 12.7876 11.2919 13.5856 9.42045L13.9932 8.4675C14.5615 7.13567 16.4559 7.13567 17.0243 8.4675L17.4318 9.42045C18.2298 11.2919 19.7166 12.7787 21.5881 13.5767L22.541 13.9843C23.8729 14.5526 23.8729 16.4413 22.541 17.0153L21.5881 17.4229C19.7166 18.2209 18.2298 19.7077 17.4318 21.5792L17.0243 22.5321C16.4559 23.8639 14.5615 23.8639 13.9932 22.5321L13.5856 21.5792C12.7876 19.7077 11.3008 18.2209 9.42936 17.4229L8.47641 17.0153C7.14458 16.447 7.14458 14.5583 8.47641 13.9843Z" fill="#141414"/>
</svg>
