<svg width="1441" height="539" viewBox="0 0 1441 539" fill="none" xmlns="http://www.w3.org/2000/svg">
<path d="M57.0115 56.3916H467.387V67.7766C467.387 113.634 446.314 157.07 409.98 186.101L241.293 320.886H444.949L485.097 406.539L57.0115 406.539V397.142C57.0115 351.239 78.1255 307.766 114.519 278.736L285.885 142.044H97.1598L57.0115 56.3916Z" fill="#FFCF33"/>
<path fill-rule="evenodd" clip-rule="evenodd" d="M1399.8 181.782C1395.43 122.441 1351.99 76.0593 1297.04 61.8844C1226.01 43.5796 1155.69 43.5796 1084.66 61.8844C1029.71 76.0593 986.268 122.441 981.902 181.782C980.692 198.09 980.074 214.341 980.048 230.591H979.949L979.949 511.438H1090V402.818C1159.21 419.775 1227.78 419.329 1297.02 401.479C1351.97 387.324 1395.43 340.942 1399.8 281.602C1402.27 248.25 1402.27 215.134 1399.8 181.782ZM1123.67 297.441C1165.88 309.964 1216.42 310.049 1258.84 297.449C1277.29 291.966 1289.85 275.346 1291.43 256.155C1292.76 239.912 1292.76 223.262 1291.42 206.995C1289.85 187.807 1277.3 171.188 1258.84 165.705C1216.63 153.165 1166.09 153.08 1123.67 165.697C1105.21 171.185 1092.66 187.807 1091.08 206.995C1089.75 223.262 1089.75 239.912 1091.08 256.155C1092.65 275.346 1105.21 291.964 1123.67 297.441Z" fill="#FFCF33"/>
<path fill-rule="evenodd" clip-rule="evenodd" d="M811.447 61.8844C866.395 76.0593 909.837 122.442 914.203 181.782C916.082 207.124 916.534 232.329 915.557 257.605C915.549 260.631 915.54 263.599 915.532 266.51C915.259 360.155 915.159 394.583 937.471 414.824C898.439 421.689 866.135 404.184 852.981 383.279C840.337 391.452 826.303 397.647 811.427 401.479C740.409 419.787 670.099 419.787 599.081 401.479C544.133 387.324 500.671 340.942 496.305 281.602C493.831 248.25 493.831 215.135 496.305 181.782C500.671 122.442 544.112 76.0593 599.06 61.8844C670.096 43.5796 740.411 43.5796 811.447 61.8844ZM675.986 319.754L567.221 100.843L673.881 176.518C684.549 184.087 699.197 182.45 707.932 172.714L734.442 143.167L843.206 362.077L736.546 286.402C725.878 278.834 711.23 280.47 702.495 290.206L675.986 319.754Z" fill="#FFCF33"/>
</svg>
