<svg viewBox="0 0 450 450" fill="none" xmlns="http://www.w3.org/2000/svg">
<path fill-rule="evenodd" clip-rule="evenodd" d="M315.447 61.8844C370.395 76.0593 413.837 122.442 418.203 181.782C420.082 207.124 420.534 232.329 419.557 257.605C419.549 260.631 419.54 263.599 419.532 266.51C419.259 360.155 419.159 394.583 441.471 414.824C402.439 421.689 370.135 404.184 356.981 383.279C344.337 391.452 330.303 397.647 315.427 401.479C244.409 419.787 174.099 419.787 103.081 401.479C48.133 387.324 4.671 340.942 0.305 281.602C-2.169 248.25 -2.169 215.135 0.305 181.782C4.671 122.442 48.112 76.0593 103.06 61.8844C174.096 43.5796 244.411 43.5796 315.447 61.8844ZM179.986 319.754L71.221 100.843L177.881 176.518C188.549 184.087 203.197 182.45 211.932 172.714L238.442 143.167L347.206 362.077L240.546 286.402C229.878 278.834 215.23 280.47 206.495 290.206L179.986 319.754Z" fill="#1B1B1F"/>
</svg>